# Blender v2.78 (sub 0) OBJ File: 'Multiple Frames Buddha Art Wall Painting.blend'
# www.blender.org
mtllib Multiple_Frames_Buddha_Art_Wall_Painting.mtl
o Cube.002_Cube.008
v -13.287994 34.293732 -0.635000
v -13.287994 34.293732 0.635000
v 12.711996 34.293724 0.635000
v 12.711990 34.293724 -0.635000
v -13.288025 -41.706268 -0.634999
v -13.288010 -41.706268 0.635000
v 12.711975 -41.706276 0.634999
v 12.711969 -41.706276 -0.635000
vt 0.0000 0.2404
vt 0.4044 0.3320
vt 0.3333 0.4522
vt 0.0000 0.3606
vt 0.3333 0.1202
vt 0.3333 0.2404
vt 0.0000 0.2404
vt 0.0610 0.1202
vt 0.6667 0.1202
vt 0.3943 0.0000
vt 0.7378 0.0916
vt 1.0054 -0.0036
vt 0.9953 0.9921
vt 0.0086 0.9921
vt 0.0086 -0.0036
vt 1.0000 0.2118
vt 0.6667 0.1202
vt 0.6667 0.0000
vt 1.0000 0.0000
vt 0.6667 0.2404
vn 0.0000 1.0000 0.0000
vn -0.0000 -1.0000 0.0000
vn -1.0000 0.0000 0.0000
vn 0.0000 0.0000 1.0000
vn 1.0000 -0.0000 -0.0000
vn -0.0000 -0.0000 -1.0000
usemtl Material
s off
f 1/1/1 2/2/1 3/3/1 4/4/1
f 5/5/2 8/6/2 7/7/2 6/8/2
f 1/9/3 5/5/3 6/10/3 2/11/3
f 2/12/4 6/13/4 7/14/4 3/15/4
f 3/16/5 7/17/5 8/18/5 4/19/5
f 5/5/6 1/9/6 4/20/6 8/6/6
o Cube.001_Cube.007
v -40.392975 34.293736 -0.635000
v -40.392975 34.293736 0.635000
v -14.392985 34.293728 0.635000
v -14.392992 34.293728 -0.635000
v -40.393005 -41.706264 -0.634999
v -40.392990 -41.706264 0.635000
v -14.393007 -41.706272 0.634999
v -14.393013 -41.706272 -0.635000
vt 0.0000 0.2359
vt 0.3333 0.2359
vt 0.3740 0.3539
vt 0.0000 0.3539
vt 0.3333 0.1180
vt 0.3333 0.2359
vt 0.0305 -0.4220
vt 0.0000 -0.5399
vt 0.6667 0.1180
vt 0.3333 -0.6579
vt 0.6667 0.0000
vt 1.0023 0.0023
vt 1.0023 0.9964
vt 0.0218 0.9964
vt 0.0117 0.0023
vt 1.0406 0.1180
vt 0.6971 -0.5399
vt 0.6667 0.0000
vt 1.0000 0.0000
vt 0.6667 0.2359
vn 0.0000 1.0000 -0.0000
vn -0.0000 -1.0000 0.0000
vn -1.0000 0.0000 0.0000
vn 0.0000 0.0000 1.0000
vn 1.0000 -0.0000 -0.0000
vn -0.0000 -0.0000 -1.0000
usemtl Material.006
s off
f 9/21/7 10/22/7 11/23/7 12/24/7
f 13/25/8 16/26/8 15/27/8 14/28/8
f 9/29/9 13/25/9 14/30/9 10/31/9
f 10/32/10 14/33/10 15/34/10 11/35/10
f 11/36/11 15/37/11 16/38/11 12/39/11
f 13/25/12 9/29/12 12/40/12 16/26/12
o Cube.005
v 41.840149 34.293728 -0.635000
v 41.840149 34.293728 0.635000
v 67.840141 34.293720 0.635000
v 67.840134 34.293720 -0.635000
v 41.840118 -41.706272 -0.634999
v 41.840134 -41.706272 0.635000
v 67.840118 -41.706280 0.634999
v 67.840111 -41.706280 -0.635000
v 41.840149 34.293728 -0.635000
v 41.840149 34.293728 0.635000
v 67.840141 34.293720 0.635000
v 67.840134 34.293720 -0.635000
v 41.840118 -41.706272 -0.634999
v 41.840134 -41.706272 0.635000
v 67.840118 -41.706280 0.634999
v 67.840111 -41.706280 -0.635000
vt 0.0000 0.2395
vt 0.3333 0.2395
vt -3.8920 0.3582
vt 0.0000 0.3592
vt 0.3333 0.1197
vt 0.3333 0.2395
vt -4.2263 1.1162
vt 0.0071 0.9948
vt 0.6667 0.1197
vt 0.3404 0.8751
vt 0.6667 0.0000
vt 1.0042 0.0002
vt 0.9972 1.0040
vt -0.0001 1.0023
vt -0.0011 0.0012
vt -3.2253 0.1188
vt -3.5596 0.9964
vt 0.6667 0.0000
vt 1.0000 0.0000
vt 0.6667 0.2395
vt 0.0000 0.2395
vt 0.3333 0.2395
vt -3.8920 0.3582
vt 0.0000 0.3592
vt 0.3333 0.1197
vt 0.3333 0.2395
vt -4.2263 1.1162
vt 0.0071 0.9948
vt 0.6667 0.1197
vt 0.3404 0.8751
vt 0.6667 0.0000
vt 1.0042 0.0002
vt 0.9972 1.0040
vt -0.0001 1.0023
vt -0.0011 0.0012
vt -3.2253 0.1188
vt -3.5596 0.9964
vt 0.6667 0.0000
vt 1.0000 0.0000
vt 0.6667 0.2395
vn 0.0000 1.0000 0.0000
vn -0.0000 -1.0000 0.0000
vn -1.0000 0.0000 0.0000
vn 0.0000 0.0000 1.0000
vn 1.0000 -0.0000 -0.0000
vn -0.0000 -0.0000 -1.0000
usemtl Material.001
s off
f 17/41/13 18/42/13 19/43/13 20/44/13
f 21/45/14 24/46/14 23/47/14 22/48/14
f 17/49/15 21/45/15 22/50/15 18/51/15
f 18/52/16 22/53/16 23/54/16 19/55/16
f 19/56/17 23/57/17 24/58/17 20/59/17
f 21/45/18 17/49/18 20/60/18 24/46/18
f 25/61/13 26/62/13 27/63/13 28/64/13
f 29/65/14 32/66/14 31/67/14 30/68/14
f 25/69/15 29/65/15 30/70/15 26/71/15
f 26/72/16 30/73/16 31/74/16 27/75/16
f 27/76/17 31/77/17 32/78/17 28/79/17
f 29/65/18 25/69/18 28/80/18 32/66/18
o Cube.004
v 40.340137 34.293724 0.635005
v 40.340137 34.293724 -0.634995
v 14.340146 34.293732 -0.635005
v 14.340153 34.293732 0.634995
v 40.340118 -41.706276 0.635004
v 40.340103 -41.706276 -0.634995
v 14.340118 -41.706268 -0.635005
v 14.340124 -41.706268 0.634995
v 40.340137 34.293724 0.635005
v 40.340137 34.293724 -0.634995
v 14.340146 34.293732 -0.635005
v 14.340153 34.293732 0.634995
v 40.340118 -41.706276 0.635004
v 40.340103 -41.706276 -0.634995
v 14.340118 -41.706268 -0.635005
v 14.340124 -41.706268 0.634995
vt 0.7747 0.4528
vt 0.3333 0.6667
vt 0.3333 1.0000
vt -0.7146 0.4741
vt 1.2296 0.7660
vt -0.6251 0.9749
vt 0.0000 0.7817
vt 0.0050 0.4486
vt 1.4413 0.1194
vt 0.3384 0.1152
vt 0.6667 0.0000
vt 0.0000 0.3539
vt 0.0000 0.0000
vt 1.0000 0.0000
vt 1.0000 0.3539
vt 1.0000 0.3333
vt 0.6667 0.4484
vt -0.2918 0.3082
vt 0.2854 -0.5259
vt 0.0034 1.0023
vt 0.0048 0.0018
vt 0.9982 -0.0002
vt 0.9915 0.9972
vt 0.7747 0.4528
vt 0.3333 0.6667
vt 0.3333 1.0000
vt -0.7146 0.4741
vt 1.2296 0.7660
vt -0.6251 0.9749
vt 0.0000 0.7817
vt 0.0050 0.4486
vt 1.4413 0.1194
vt 0.3384 0.1152
vt 0.6667 0.0000
vt 0.0000 0.3539
vt 0.0000 0.0000
vt 1.0000 0.0000
vt 1.0000 0.3539
vt 1.0000 0.3333
vt 0.6667 0.4484
vt -0.2918 0.3082
vt 0.2854 -0.5259
vt 0.0034 1.0023
vt 0.0048 0.0018
vt 0.9982 -0.0002
vt 0.9915 0.9972
vn 0.0000 1.0000 0.0000
vn -0.0000 -1.0000 0.0000
vn 1.0000 -0.0000 -0.0000
vn 0.0000 0.0000 -1.0000
vn -1.0000 0.0000 0.0000
vn -0.0000 -0.0000 1.0000
usemtl Material.002
s off
f 33/81/19 34/82/19 35/83/19 36/84/19
f 37/85/20 40/86/20 39/87/20 38/88/20
f 33/89/21 37/85/21 38/90/21 34/91/21
f 34/92/22 38/93/22 39/94/22 35/95/22
f 35/96/23 39/97/23 40/98/23 36/99/23
f 37/100/24 33/101/24 36/102/24 40/103/24
f 41/104/19 42/105/19 43/106/19 44/107/19
f 45/108/20 48/109/20 47/110/20 46/111/20
f 41/112/21 45/108/21 46/113/21 42/114/21
f 42/115/22 46/116/22 47/117/22 43/118/22
f 43/119/23 47/120/23 48/121/23 44/122/23
f 45/123/24 41/124/24 44/125/24 48/126/24
o Cube
v -68.159851 34.293755 -0.635000
v -68.159851 34.293755 0.635000
v -42.159863 34.293747 0.635000
v -42.159870 34.293747 -0.635000
v -68.159882 -41.706245 -0.634999
v -68.159874 -41.706245 0.635000
v -42.159882 -41.706253 0.634999
v -42.159885 -41.706253 -0.635000
vt 0.0000 0.2424
vt -0.5912 0.8224
vt 1.9284 0.9436
vt 0.0000 0.3636
vt 0.3333 0.1212
vt 0.3333 0.2424
vt 1.6011 0.5401
vt -0.9226 0.4190
vt 0.6667 0.1212
vt -0.5892 0.2978
vt -0.2578 0.5800
vt 1.0057 -0.0007
vt 1.0076 0.9997
vt 0.0043 0.9996
vt -0.0018 -0.0007
vt 2.5950 0.7012
vt 2.2678 0.4189
vt 0.6667 0.0000
vt 1.0000 0.0000
vt 0.6667 0.2424
vn 0.0000 1.0000 -0.0000
vn -0.0000 -1.0000 -0.0000
vn -1.0000 0.0000 0.0000
vn 0.0000 0.0000 1.0000
vn 1.0000 -0.0000 -0.0000
vn -0.0000 -0.0000 -1.0000
usemtl Material.007
s off
f 49/127/25 50/128/25 51/129/25 52/130/25
f 53/131/26 56/132/26 55/133/26 54/134/26
f 49/135/27 53/131/27 54/136/27 50/137/27
f 50/138/28 54/139/28 55/140/28 51/141/28
f 51/142/29 55/143/29 56/144/29 52/145/29
f 53/131/30 49/135/30 52/146/30 56/132/30
